<?xml version="1.0" encoding="UTF-8"?>
<svg version="1.1" xmlns="http://www.w3.org/2000/svg" width="600" height="600">
<path d="M0 0 C198 0 396 0 600 0 C600 198 600 396 600 600 C402 600 204 600 0 600 C0 402 0 204 0 0 Z " fill="#9D9D9D" transform="translate(0,0)"/>
<path d="M0 0 C1.5255847 -0.01863306 1.5255847 -0.01863306 3.08198929 -0.03764254 C4.74758959 -0.01988895 4.74758959 -0.01988895 6.44683838 -0.0017767 C8.2243001 -0.01241828 8.2243001 -0.01241828 10.03767014 -0.02327484 C13.32350258 -0.03783346 16.60839917 -0.02995788 19.89418983 -0.0125519 C23.43891967 0.00081309 26.98354002 -0.01461181 30.52825928 -0.02637386 C37.47099053 -0.04476144 44.41344051 -0.03623083 51.35616302 -0.01828564 C56.99818407 -0.00426495 62.64012873 -0.00036569 68.28216553 -0.00372791 C69.08489922 -0.00420536 69.88763292 -0.0046828 70.71469188 -0.00517471 C72.34538557 -0.00620103 73.97607924 -0.00725639 75.6067729 -0.00834047 C90.02910364 -0.01690979 104.45129851 -0.00022506 118.87359619 0.02948856 C132.87105008 0.05832655 146.86830824 0.06540983 160.86578369 0.04999638 C176.10490002 0.03323868 191.3439234 0.02919559 206.58304214 0.04670674 C208.2077662 0.04855114 209.83249027 0.05038587 211.45721436 0.05221081 C212.25662783 0.0531229 213.05604131 0.05403499 213.87967944 0.05497472 C219.51548501 0.06058281 225.15124523 0.0572704 230.78704834 0.05066586 C237.65443893 0.0429376 244.52163677 0.04966678 251.38898849 0.0748409 C254.89345005 0.08734793 258.39761135 0.09346819 261.90208435 0.08229923 C265.69922171 0.07364582 269.49547802 0.08949285 273.2925415 0.1117487 C274.9581418 0.09938754 274.9581418 0.09938754 276.65739059 0.08677667 C278.18297529 0.10334821 278.18297529 0.10334821 279.73937988 0.12025452 C280.61572208 0.121446 281.49206429 0.12263748 282.39496231 0.12386507 C285.85356568 0.82620978 287.47067509 2.05182651 289.86968994 4.62641239 C290.49643576 7.63211918 290.49643576 7.63211918 290.49889565 11.22943974 C290.50979645 12.22732895 290.50979645 12.22732895 290.52091748 13.24537754 C290.53923286 15.4849383 290.52178435 17.72280034 290.50460815 19.96234989 C290.51036683 21.57988202 290.51830625 23.19740762 290.52824438 24.81491947 C290.54917605 29.26775367 290.53877406 33.72005419 290.52331328 38.17289066 C290.51202943 42.97188839 290.52944771 47.77079247 290.54321289 52.56977177 C290.56548161 61.97409807 290.56062795 71.37822519 290.54614969 80.78255939 C290.53487172 88.42356092 290.53332029 96.0645065 290.53876877 103.70551395 C290.53953493 104.79175871 290.5403011 105.87800346 290.54109048 106.99716473 C290.54268906 109.20363968 290.54431012 111.41011462 290.54595344 113.61658955 C290.56022159 134.32155798 290.5438015 155.02641585 290.51695161 175.73136616 C290.49461188 193.50893696 290.49849171 211.28634454 290.52154541 229.06391239 C290.54828459 249.69324273 290.55884819 270.32247608 290.54348409 290.95182133 C290.54189129 293.15031781 290.54031944 295.34881431 290.53876877 297.54731083 C290.53799739 298.62909925 290.53722601 299.71088768 290.53643126 300.82545757 C290.53210861 308.45997915 290.53941297 316.09443937 290.55116653 323.72895145 C290.56516918 333.02905203 290.56143874 342.32894153 290.53476281 351.62901783 C290.52159447 356.37688411 290.51652343 361.12439808 290.53300858 365.872262 C290.54785897 370.21488493 290.53980188 374.55682751 290.51312082 378.89938831 C290.50751487 380.4740198 290.51042342 382.04870825 290.52249976 383.62330341 C290.53761795 385.75749113 290.52220786 387.88932226 290.49889565 390.02338505 C290.49808388 391.21050083 290.49727212 392.39761662 290.49643576 393.6207056 C289.86968994 396.62641239 289.86968994 396.62641239 287.65118355 399.00764132 C284.67176161 400.74160254 283.14291636 401.12725427 279.73658657 401.12977695 C278.71891341 401.14020794 277.70124024 401.15063893 276.6527285 401.16138601 C275.54164618 401.15246313 274.43056386 401.14354024 273.28581238 401.13434696 C272.10013233 401.14058692 270.91445229 401.14682689 269.69284254 401.15325594 C266.40520361 401.1664517 263.11815522 401.16170096 259.830531 401.14931107 C256.28378328 401.1402651 252.73711573 401.15422794 249.19038391 401.16523075 C242.24401899 401.18302495 235.29782686 401.1791722 228.35145514 401.16758019 C222.7070476 401.15855038 217.06268852 401.15731989 211.41827583 401.16167545 C210.61525341 401.16228839 209.812231 401.16290132 208.98487457 401.16353282 C207.35361515 401.16481171 205.72235574 401.16610856 204.09109635 401.16742319 C188.7921883 401.17883143 173.4933761 401.16571109 158.19448376 401.14422172 C145.06232677 401.12634709 131.93031119 401.12945735 118.79815674 401.14789677 C103.55283055 401.16929331 88.30758835 401.17773637 73.06224924 401.16544771 C71.43726227 401.16417349 69.81227528 401.16291601 68.18728828 401.16167545 C66.987957 401.1607498 66.987957 401.1607498 65.7643968 401.15980545 C60.12511121 401.15634914 54.48587883 401.16218684 48.84660149 401.17159367 C41.97662971 401.18280139 35.10684079 401.17979946 28.23689001 401.15847069 C24.73052095 401.14794408 21.22445699 401.14386548 17.71809006 401.1570673 C13.92074805 401.17114869 10.12390778 401.15435774 6.32658386 401.13434696 C4.6566143 401.14773129 4.6566143 401.14773129 2.95290798 401.16138601 C1.93784256 401.15095502 0.92277715 401.14052403 -0.12304783 401.12977695 C-0.99976975 401.12912755 -1.87649167 401.12847814 -2.77978092 401.12780905 C-5.90973261 400.46015201 -7.10803852 399.04630047 -9.13031006 396.62641239 C-10.53851438 393.81000376 -10.26108975 391.4709818 -10.26732445 388.31912613 C-10.26997627 387.66153906 -10.2726281 387.00395199 -10.27536029 386.32643804 C-10.28307909 384.10147943 -10.28361344 381.87657578 -10.28421021 379.65160465 C-10.28822312 378.04889357 -10.29266105 376.44618351 -10.29748976 374.84347469 C-10.30948 370.42243497 -10.31510936 366.00140618 -10.31967092 361.58035338 C-10.32561766 356.81882325 -10.33722972 352.05730624 -10.34796143 347.29578495 C-10.37250539 335.78889944 -10.38711481 324.28200957 -10.40002149 312.77510592 C-10.40373175 309.5269735 -10.40770511 306.2788415 -10.41177416 303.03070951 C-10.43700721 282.87491229 -10.4590677 262.71911443 -10.4715023 242.5633049 C-10.47443216 237.89269032 -10.4773938 233.22207575 -10.48040771 228.55146122 C-10.48152679 226.81010133 -10.48152679 226.81010133 -10.48266847 225.03356246 C-10.49532942 206.21619603 -10.52856137 187.39892394 -10.57020955 168.58160164 C-10.61258612 149.2775117 -10.63619232 129.97347011 -10.64142287 110.66933376 C-10.64484168 99.82454017 -10.65665217 88.97989405 -10.6895256 78.13514614 C-10.71746846 68.90166591 -10.72855083 59.66836334 -10.71733014 50.4348441 C-10.71212883 45.72127356 -10.71512541 41.00807543 -10.73979568 36.29455853 C-10.76217928 31.98206392 -10.7616339 27.67021156 -10.74259181 23.35770652 C-10.73977643 21.79509482 -10.74547519 20.23244056 -10.76040475 18.66989764 C-10.77943014 16.5495511 -10.76778162 14.43151401 -10.74834251 12.31122208 C-10.74969904 11.13251516 -10.75105557 9.95380823 -10.75245321 8.73938292 C-9.57459198 2.84580795 -5.89809569 0.0018151 0 0 Z " fill="#9D9D9D" transform="translate(143.13031005859375,99.3735876083374)"/>
<path d="M0 0 C1.5255847 -0.01863306 1.5255847 -0.01863306 3.08198929 -0.03764254 C4.74758959 -0.01988895 4.74758959 -0.01988895 6.44683838 -0.0017767 C8.2243001 -0.01241828 8.2243001 -0.01241828 10.03767014 -0.02327484 C13.32350258 -0.03783346 16.60839917 -0.02995788 19.89418983 -0.0125519 C23.43891967 0.00081309 26.98354002 -0.01461181 30.52825928 -0.02637386 C37.47099053 -0.04476144 44.41344051 -0.03623083 51.35616302 -0.01828564 C56.99818407 -0.00426495 62.64012873 -0.00036569 68.28216553 -0.00372791 C69.08489922 -0.00420536 69.88763292 -0.0046828 70.71469188 -0.00517471 C72.34538557 -0.00620103 73.97607924 -0.00725639 75.6067729 -0.00834047 C90.02910364 -0.01690979 104.45129851 -0.00022506 118.87359619 0.02948856 C132.87105008 0.05832655 146.86830824 0.06540983 160.86578369 0.04999638 C176.10490002 0.03323868 191.3439234 0.02919559 206.58304214 0.04670674 C208.2077662 0.04855114 209.83249027 0.05038587 211.45721436 0.05221081 C212.25662783 0.0531229 213.05604131 0.05403499 213.87967944 0.05497472 C219.51548501 0.06058281 225.15124523 0.0572704 230.78704834 0.05066586 C237.65443893 0.0429376 244.52163677 0.04966678 251.38898849 0.0748409 C254.89345005 0.08734793 258.39761135 0.09346819 261.90208435 0.08229923 C265.69922171 0.07364582 269.49547802 0.08949285 273.2925415 0.1117487 C274.9581418 0.09938754 274.9581418 0.09938754 276.65739059 0.08677667 C278.18297529 0.10334821 278.18297529 0.10334821 279.73937988 0.12025452 C280.61572208 0.121446 281.49206429 0.12263748 282.39496231 0.12386507 C285.85356568 0.82620978 287.47067509 2.05182651 289.86968994 4.62641239 C290.49643576 7.63211918 290.49643576 7.63211918 290.49889565 11.22943974 C290.50979645 12.22732895 290.50979645 12.22732895 290.52091748 13.24537754 C290.53923286 15.4849383 290.52178435 17.72280034 290.50460815 19.96234989 C290.51036683 21.57988202 290.51830625 23.19740762 290.52824438 24.81491947 C290.54917605 29.26775367 290.53877406 33.72005419 290.52331328 38.17289066 C290.51202943 42.97188839 290.52944771 47.77079247 290.54321289 52.56977177 C290.56548161 61.97409807 290.56062795 71.37822519 290.54614969 80.78255939 C290.53487172 88.42356092 290.53332029 96.0645065 290.53876877 103.70551395 C290.53953493 104.79175871 290.5403011 105.87800346 290.54109048 106.99716473 C290.54268906 109.20363968 290.54431012 111.41011462 290.54595344 113.61658955 C290.56022159 134.32155798 290.5438015 155.02641585 290.51695161 175.73136616 C290.49461188 193.50893696 290.49849171 211.28634454 290.52154541 229.06391239 C290.54828459 249.69324273 290.55884819 270.32247608 290.54348409 290.95182133 C290.54189129 293.15031781 290.54031944 295.34881431 290.53876877 297.54731083 C290.53799739 298.62909925 290.53722601 299.71088768 290.53643126 300.82545757 C290.53210861 308.45997915 290.53941297 316.09443937 290.55116653 323.72895145 C290.56516918 333.02905203 290.56143874 342.32894153 290.53476281 351.62901783 C290.52159447 356.37688411 290.51652343 361.12439808 290.53300858 365.872262 C290.54785897 370.21488493 290.53980188 374.55682751 290.51312082 378.89938831 C290.50751487 380.4740198 290.51042342 382.04870825 290.52249976 383.62330341 C290.53761795 385.75749113 290.52220786 387.88932226 290.49889565 390.02338505 C290.49808388 391.21050083 290.49727212 392.39761662 290.49643576 393.6207056 C289.86968994 396.62641239 289.86968994 396.62641239 287.65118355 399.00764132 C284.67176161 400.74160254 283.14291636 401.12725427 279.73658657 401.12977695 C278.71891341 401.14020794 277.70124024 401.15063893 276.6527285 401.16138601 C275.54164618 401.15246313 274.43056386 401.14354024 273.28581238 401.13434696 C272.10013233 401.14058692 270.91445229 401.14682689 269.69284254 401.15325594 C266.40520361 401.1664517 263.11815522 401.16170096 259.830531 401.14931107 C256.28378328 401.1402651 252.73711573 401.15422794 249.19038391 401.16523075 C242.24401899 401.18302495 235.29782686 401.1791722 228.35145514 401.16758019 C222.7070476 401.15855038 217.06268852 401.15731989 211.41827583 401.16167545 C210.61525341 401.16228839 209.812231 401.16290132 208.98487457 401.16353282 C207.35361515 401.16481171 205.72235574 401.16610856 204.09109635 401.16742319 C188.7921883 401.17883143 173.4933761 401.16571109 158.19448376 401.14422172 C145.06232677 401.12634709 131.93031119 401.12945735 118.79815674 401.14789677 C103.55283055 401.16929331 88.30758835 401.17773637 73.06224924 401.16544771 C71.43726227 401.16417349 69.81227528 401.16291601 68.18728828 401.16167545 C66.987957 401.1607498 66.987957 401.1607498 65.7643968 401.15980545 C60.12511121 401.15634914 54.48587883 401.16218684 48.84660149 401.17159367 C41.97662971 401.18280139 35.10684079 401.17979946 28.23689001 401.15847069 C24.73052095 401.14794408 21.22445699 401.14386548 17.71809006 401.1570673 C13.92074805 401.17114869 10.12390778 401.15435774 6.32658386 401.13434696 C4.6566143 401.14773129 4.6566143 401.14773129 2.95290798 401.16138601 C1.93784256 401.15095502 0.92277715 401.14052403 -0.12304783 401.12977695 C-0.99976975 401.12912755 -1.87649167 401.12847814 -2.77978092 401.12780905 C-5.90973261 400.46015201 -7.10803852 399.04630047 -9.13031006 396.62641239 C-10.53851438 393.81000376 -10.26108975 391.4709818 -10.26732445 388.31912613 C-10.26997627 387.66153906 -10.2726281 387.00395199 -10.27536029 386.32643804 C-10.28307909 384.10147943 -10.28361344 381.87657578 -10.28421021 379.65160465 C-10.28822312 378.04889357 -10.29266105 376.44618351 -10.29748976 374.84347469 C-10.30948 370.42243497 -10.31510936 366.00140618 -10.31967092 361.58035338 C-10.32561766 356.81882325 -10.33722972 352.05730624 -10.34796143 347.29578495 C-10.37250539 335.78889944 -10.38711481 324.28200957 -10.40002149 312.77510592 C-10.40373175 309.5269735 -10.40770511 306.2788415 -10.41177416 303.03070951 C-10.43700721 282.87491229 -10.4590677 262.71911443 -10.4715023 242.5633049 C-10.47443216 237.89269032 -10.4773938 233.22207575 -10.48040771 228.55146122 C-10.48152679 226.81010133 -10.48152679 226.81010133 -10.48266847 225.03356246 C-10.49532942 206.21619603 -10.52856137 187.39892394 -10.57020955 168.58160164 C-10.61258612 149.2775117 -10.63619232 129.97347011 -10.64142287 110.66933376 C-10.64484168 99.82454017 -10.65665217 88.97989405 -10.6895256 78.13514614 C-10.71746846 68.90166591 -10.72855083 59.66836334 -10.71733014 50.4348441 C-10.71212883 45.72127356 -10.71512541 41.00807543 -10.73979568 36.29455853 C-10.76217928 31.98206392 -10.7616339 27.67021156 -10.74259181 23.35770652 C-10.73977643 21.79509482 -10.74547519 20.23244056 -10.76040475 18.66989764 C-10.77943014 16.5495511 -10.76778162 14.43151401 -10.74834251 12.31122208 C-10.74969904 11.13251516 -10.75105557 9.95380823 -10.75245321 8.73938292 C-9.57459198 2.84580795 -5.89809569 0.0018151 0 0 Z M6.86968994 17.62641239 C6.86968994 138.40641239 6.86968994 259.18641239 6.86968994 383.62641239 C94.64968994 383.62641239 182.42968994 383.62641239 272.86968994 383.62641239 C272.86968994 262.84641239 272.86968994 142.06641239 272.86968994 17.62641239 C185.08968994 17.62641239 97.30968994 17.62641239 6.86968994 17.62641239 Z " fill="#FDFDFD" transform="translate(143.13031005859375,99.3735876083374)"/>
<path d="M0 0 C6.44406485 4.06421628 12.62663134 10.22157696 15.31640625 17.4609375 C15.98255666 21.51255685 16.07618257 25.48507869 16.06640625 29.5859375 C16.07027344 31.24967407 16.07027344 31.24967407 16.07421875 32.94702148 C15.83083044 42.37900988 13.60071865 48.40511354 7.31640625 55.4609375 C8.00734375 55.71359375 8.69828125 55.96625 9.41015625 56.2265625 C18.06897561 59.90423309 27.45717185 64.99725648 31.39550781 73.90039062 C33.58243974 82.35590899 32.93267583 91.51956781 33.01660156 100.20361328 C33.0494301 102.6802365 33.10361921 105.156682 33.18066406 107.63232422 C33.63148251 122.23296173 32.87389513 133.3469649 26.03462219 146.37649536 C20.72828551 156.79606093 20.3306078 167.32749699 19.75390625 178.8359375 C19.61917056 180.93254833 19.48050946 183.02891065 19.33789062 185.125 C19.0803748 188.94488439 18.84830897 192.7646368 18.63842773 196.58740234 C17.82962024 209.48889902 17.82962024 209.48889902 14.62890625 212.4609375 C10.97416623 214.66757298 9.47291579 215.4337376 5.31640625 214.4609375 C1.73353416 211.0728857 0.42203335 209.68933261 -0.00585938 204.71313477 C0.10569608 203.29464402 0.24617543 201.87823361 0.41015625 200.46484375 C0.54982143 198.85566118 0.6891283 197.24644748 0.828125 195.63720703 C0.91046387 194.79313293 0.99280273 193.94905884 1.07763672 193.07940674 C1.40096089 189.53366791 1.60011687 185.9844767 1.80541992 182.43026733 C2.03212741 178.69625432 2.3169049 174.96763931 2.60644531 171.23803711 C2.74647709 169.34418879 2.87212266 167.44922207 2.98339844 165.5534668 C3.59206239 155.33371749 4.40109841 146.98230453 9.87109375 138.1796875 C15.81586903 128.44977439 15.9571946 118.54963336 15.92919922 107.36547852 C15.94150817 103.99553285 16.0930121 100.64915092 16.25 97.28320312 C16.78365433 86.76740833 16.78365433 86.76740833 12.67663574 77.50848389 C8.65800465 74.25520772 4.23883243 72.28558512 -0.54229736 70.40744019 C-4.41372566 68.69617905 -8.75258286 66.32295927 -10.68359375 62.4609375 C-11.50802754 56.76639484 -11.93878013 51.54559059 -8.8984375 46.49609375 C-8.16753906 45.55636719 -7.43664062 44.61664063 -6.68359375 43.6484375 C-2.11934186 37.53836055 -1.3482576 32.43370675 -1.97265625 25 C-2.66917986 21.53269014 -3.1416645 19.91708573 -5.62109375 17.4609375 C-9.12746573 15.26768053 -12.42863169 14.65227336 -16.53125 14.92578125 C-20.23385347 15.84639228 -22.07073971 17.71744076 -24.68359375 20.4609375 C-27.08541818 25.26458635 -26.7446666 32.21984094 -25.68359375 37.4609375 C-23.86406563 40.72573632 -21.74505624 43.5054042 -19.48046875 46.47265625 C-16.46258141 51.4915341 -16.38182395 56.82245784 -17.68359375 62.4609375 C-20.72450601 67.70831644 -25.54847096 69.91958233 -30.74609375 72.6484375 C-32.36245809 73.51603543 -33.97836261 74.38449069 -35.59375 75.25390625 C-36.30668213 75.6305542 -37.01961426 76.00720215 -37.75415039 76.39526367 C-39.44795831 77.33079088 -41.07358257 78.38759672 -42.68359375 79.4609375 C-43.18178104 81.50445292 -43.18178104 81.50445292 -43.16699219 83.90039062 C-43.19581482 84.82315796 -43.22463745 85.74592529 -43.2543335 86.69665527 C-43.27345795 88.20419373 -43.27345795 88.20419373 -43.29296875 89.7421875 C-43.31006897 90.78427368 -43.32716919 91.82635986 -43.3447876 92.90002441 C-43.37319521 95.1192916 -43.39276243 97.33868644 -43.40429688 99.55810547 C-43.4330175 102.89400625 -43.52580631 106.22402973 -43.62109375 109.55859375 C-43.81029556 122.48403624 -42.2351645 131.31656552 -35.78564453 142.50537109 C-32.62824393 148.08436098 -32.0934242 153.70211703 -31.74609375 160.0234375 C-31.65094482 161.20019043 -31.5557959 162.37694336 -31.45776367 163.58935547 C-31.26530879 166.01263319 -31.08850337 168.43720704 -30.92773438 170.86279297 C-30.68759229 174.40200698 -30.39092931 177.93172829 -30.07421875 181.46484375 C-27.73493 208.06584375 -27.73493 208.06584375 -30.80859375 212.5859375 C-34.21878571 214.80997574 -35.69357514 215.20906599 -39.68359375 214.4609375 C-42.38350037 212.66099976 -44.22548025 211.3771645 -45.68359375 208.4609375 C-45.86625072 206.78176996 -45.99509788 205.09661576 -46.09741211 203.41064453 C-46.16516342 202.35418732 -46.23291473 201.2977301 -46.30271912 200.20925903 C-46.37555618 199.05739105 -46.44839325 197.90552307 -46.5234375 196.71875 C-46.70011311 194.26415185 -46.87923486 191.80972878 -47.06054688 189.35546875 C-47.34471705 185.49960274 -47.61756135 181.64512509 -47.84790039 177.78564453 C-48.90046241 159.31012946 -48.90046241 159.31012946 -55.8203125 142.4375 C-62.38599474 131.26685308 -61.99875958 120.14603008 -61.65771484 107.46582031 C-61.55761364 103.67380913 -61.53465428 99.88697322 -61.5234375 96.09375 C-61.49530269 93.65879912 -61.46290729 91.22389289 -61.42578125 88.7890625 C-61.41505585 87.66816223 -61.40433044 86.54726196 -61.39328003 85.39239502 C-61.14707454 77.26117753 -59.79931283 71.5112003 -53.89453125 65.73046875 C-50.46282627 63.30489625 -46.98672598 61.17179416 -43.30859375 59.1484375 C-42.66792969 58.78943359 -42.02726562 58.43042969 -41.3671875 58.06054688 C-39.80907745 57.18847036 -38.24677153 56.32389729 -36.68359375 55.4609375 C-37.55707373 52.9993121 -38.50672492 50.73921628 -39.90991211 48.53149414 C-43.8648904 42.26513732 -44.42332913 37.22257 -44.24609375 29.8984375 C-44.25705078 28.90908203 -44.26800781 27.91972656 -44.27929688 26.90039062 C-44.19579285 18.51101909 -42.07287452 12.27492192 -36.05859375 6.2734375 C-25.91359567 -3.18155152 -12.94282268 -6.01297528 0 0 Z " fill="#FDFDFD" transform="translate(365.68359375,202.5390625)"/>
<path d="M0 0 C5.6283766 3.91409992 10.32809134 8.60630197 13 15 C13.75885329 19.45450146 13.78971787 23.80203946 13.75 28.3125 C13.78609375 29.47201172 13.8221875 30.63152344 13.859375 31.82617188 C13.859375 40.66392147 11.41354267 46.07498637 6 53 C6.78270264 53.19907959 7.56540527 53.39815918 8.37182617 53.60327148 C18.59007551 56.23553311 24.72510376 59.21153816 30.42211914 68.25830078 C31.77963848 70.63193623 33.08803556 73.0249277 34.375 75.4375 C34.82488281 76.26443359 35.27476562 77.09136719 35.73828125 77.94335938 C36.83310344 79.95829808 37.9201028 81.9770353 39 84 C39.32685791 83.52691406 39.65371582 83.05382812 39.99047852 82.56640625 C55.983376 59.48398976 55.983376 59.48398976 61.125 58.25 C64.75217738 59.19622019 66.4867393 60.1995095 69 63 C70.25 66.0625 70.25 66.0625 70 70 C68.14581184 73.98307086 65.5691606 77.45555516 63 81 C61.97233033 82.4411739 60.9450104 83.88259723 59.91796875 85.32421875 C57.14589071 89.19770098 54.34413201 93.04869895 51.53320312 96.89404297 C50.16215039 98.77727559 48.80382582 100.66855158 47.453125 102.56640625 C46.74671875 103.55511719 46.0403125 104.54382813 45.3125 105.5625 C44.71050781 106.40941406 44.10851562 107.25632812 43.48828125 108.12890625 C42 110 42 110 40 111 C33.70500809 111.58286962 33.70500809 111.58286962 30.92138672 109.28149414 C28.97068192 106.96518711 27.83261628 104.95367363 26.6328125 102.18359375 C26.22571045 101.25925537 25.8186084 100.33491699 25.39916992 99.38256836 C24.97869385 98.4106958 24.55821777 97.43882324 24.125 96.4375 C23.22961586 94.44712791 22.33249879 92.45753444 21.43359375 90.46875 C20.06725232 87.42254843 18.73410495 84.3721109 17.47265625 81.28125 C14.87634237 75.53621502 12.61818876 73.38260741 6.6875 71.0625 C4.46350592 70.35844702 2.2344669 69.67007311 0 69 C-1.72162437 68.32461241 -3.43241482 67.62018071 -5.125 66.875 C-5.80820313 66.58367187 -6.49140625 66.29234375 -7.1953125 65.9921875 C-9.34227703 64.81182172 -10.56353198 64.01019248 -12 62 C-13.09339258 55.93055549 -13.52129808 49.46589493 -10.20703125 44.09375 C-9.11455078 42.80984375 -9.11455078 42.80984375 -8 41.5 C-3.29029305 35.93853753 -3.18296167 31.33613612 -3.328125 24.3828125 C-4.0943891 20.52476188 -5.26795609 18.78291996 -8 16 C-11.96533466 13.74940465 -15.49653782 13.52595135 -20 14 C-24.24028619 16.2587937 -24.24028619 16.2587937 -27 20 C-28.16789904 30.22675965 -28.16789904 30.22675965 -25.4375 39.8203125 C-24.15430039 41.34669913 -22.86916797 42.87146315 -21.58203125 44.39453125 C-18.46108897 49.53445348 -18.60749756 56.27962612 -20 62 C-24.68095359 66.57863254 -30.07391456 69.36390612 -35.875 72.3125 C-37.19371094 72.9940918 -37.19371094 72.9940918 -38.5390625 73.68945312 C-40.68937581 74.79966923 -42.84294824 75.90295043 -45 77 C-45.23133074 83.9329282 -45.38708364 90.86483647 -45.49438477 97.80078125 C-45.53918797 100.15174532 -45.60025632 102.50246547 -45.67895508 104.85253906 C-46.10317427 117.86192762 -46.07305166 128.05395741 -39.36978149 139.4216156 C-34.25817369 148.36306485 -34.06116128 157.84639882 -33.4375 167.9375 C-33.28907214 169.81471413 -33.13738655 171.69167356 -32.98242188 173.56835938 C-32.55073433 179.04190473 -32.24788566 184.51532791 -32 190 C-31.95466125 190.90711731 -31.90932251 191.81423462 -31.86260986 192.74884033 C-31.74303217 195.37560101 -31.66297809 198.00029391 -31.59765625 200.62890625 C-31.56111435 201.4165184 -31.52457245 202.20413055 -31.48692322 203.01560974 C-31.44162539 206.91012208 -31.62503063 208.60090728 -34.33764648 211.48803711 C-37.62849151 213.35692324 -39.27452463 213.69852663 -43 213 C-47.30425986 209.55659211 -48.63629288 207.10025397 -49.25865173 201.79524231 C-49.32145828 200.99632065 -49.38426483 200.19739899 -49.44897461 199.37426758 C-49.5225267 198.46264359 -49.5960788 197.55101959 -49.67185974 196.61177063 C-49.74791946 195.63258163 -49.82397919 194.65339264 -49.90234375 193.64453125 C-50.07210689 191.55662771 -50.242034 189.4687375 -50.41210938 187.38085938 C-50.67547381 184.10068602 -50.93687984 180.82037987 -51.19506836 177.53979492 C-51.44617404 174.3659053 -51.70507352 171.19272185 -51.96484375 168.01953125 C-52.07589699 166.56592949 -52.07589699 166.56592949 -52.18919373 165.08296204 C-52.92887319 156.13994451 -53.83000437 149.30173056 -59.078125 141.84375 C-65.74944563 130.73213706 -64.03056143 117.06171565 -63.7824707 104.56433105 C-63.7389631 101.79832696 -63.74060383 99.03311014 -63.74302292 96.26682281 C-63.74167023 92.93798986 -63.70632812 89.60991151 -63.671875 86.28125 C-63.66519806 84.43738708 -63.66519806 84.43738708 -63.65838623 82.55627441 C-63.47492603 74.27232969 -62.46440025 69.55323103 -56.5625 63.5 C-52.05905157 60.02059152 -43.73778842 54 -38 54 C-39.48180402 50.88821157 -40.81628556 48.21346856 -43.07421875 45.58984375 C-46.33637888 40.73502622 -45.61609476 34.80864439 -45.5625 29.1875 C-45.58634766 28.04990234 -45.61019531 26.91230469 -45.63476562 25.74023438 C-45.61963649 17.00063676 -43.71006502 11.38119467 -38.078125 4.73046875 C-26.78943676 -4.79737709 -13.39327059 -7.77451837 0 0 Z " fill="#FDFDFD" transform="translate(230,204)"/>
<path d="M0 0 C1.27362648 0.00349709 1.27362648 0.00349709 2.57298279 0.00706482 C4.36247855 0.01678179 6.15194448 0.03852181 7.94116211 0.0715332 C10.67803546 0.1209933 13.41311038 0.13301888 16.15039062 0.13867188 C17.89194618 0.15275712 19.63348616 0.16896127 21.375 0.1875 C22.60012047 0.19554405 22.60012047 0.19554405 23.84999084 0.20375061 C31.13536787 0.35613022 31.13536787 0.35613022 34.12109375 2.55859375 C36.36726 5.92784312 36.37270234 7.03553566 36.37836266 10.97659206 C36.38481155 12.10871858 36.39126044 13.2408451 36.39790475 14.40727848 C36.39480755 15.65647872 36.39171035 16.90567897 36.38851929 18.19273376 C36.39225403 19.5289101 36.39685485 20.86508424 36.40224993 22.2012549 C36.41451697 25.88088926 36.41421514 29.56043295 36.41186118 33.2400831 C36.41145395 37.20539344 36.42248311 41.17067435 36.43197632 45.13597107 C36.44860715 52.90740169 36.45408679 60.67880197 36.45520107 68.45024889 C36.45615048 74.7649842 36.46025541 81.07970947 36.46660233 87.3944416 C36.48421977 105.2858188 36.49344031 123.17717198 36.49194138 141.06855791 C36.49186147 142.03359737 36.49178155 142.99863684 36.49169922 143.99291992 C36.49161746 144.95913336 36.4915357 145.9253468 36.49145146 146.92083944 C36.49063823 162.58638134 36.50978388 178.25182718 36.53797595 193.91734128 C36.5666746 209.99075883 36.58051794 226.06412947 36.5787884 242.1375733 C36.57812349 251.16638689 36.58365986 260.19509974 36.6051445 269.2238903 C36.62331656 276.91001836 36.62773645 284.59600001 36.61412565 292.28214019 C36.60757601 296.20570036 36.60755017 300.12897935 36.62483215 304.05251312 C36.64048048 307.64197936 36.6377848 311.23093953 36.62026389 314.82039279 C36.61570889 316.73899863 36.63091575 318.65761966 36.64674318 320.57616562 C36.63294679 322.27826701 36.63294679 322.27826701 36.61887169 324.0147543 C36.61930642 324.99584429 36.61974116 325.97693429 36.62018907 326.98775429 C35.9795318 330.28777922 34.68489344 331.45747652 32.12109375 333.55859375 C27.08070486 336.0787882 19.19168992 334.87175781 13.58227539 334.90869141 C11.73839695 334.9252459 9.89458256 334.95252944 8.05102539 334.99072266 C5.3904497 335.0455504 2.73137738 335.06737354 0.0703125 335.08203125 C-0.75068436 335.10470062 -1.57168121 335.12737 -2.41755676 335.15072632 C-6.70336586 335.13494455 -8.38453553 334.93735421 -11.89916992 332.24462891 C-13.87890625 329.55859375 -13.87890625 329.55859375 -14.50390625 326.05859375 C-13.87890625 322.55859375 -13.87890625 322.55859375 -8.87890625 317.55859375 C0.36109375 317.55859375 9.60109375 317.55859375 19.12109375 317.55859375 C19.12109375 218.55859375 19.12109375 119.55859375 19.12109375 17.55859375 C9.88109375 17.55859375 0.64109375 17.55859375 -8.87890625 17.55859375 C-13.87890625 12.55859375 -13.87890625 12.55859375 -14.50390625 9.05859375 C-13.00175866 0.64656722 -7.32838985 -0.17569221 0 0 Z " fill="#FDFDFD" transform="translate(463.87890625,132.44140625)"/>
<path d="M0 0 C2.73321512 2.09033725 3.86909288 3.23604843 4.45654297 6.66430664 C4.16729877 16.96882883 3.36008955 27.20792736 2.40087891 37.47045898 C2.12333419 40.45541558 1.85992804 43.44140127 1.59765625 46.42773438 C1.42271553 48.34643099 1.24696334 50.26505383 1.0703125 52.18359375 C0.99313995 53.06599228 0.91596741 53.94839081 0.8364563 54.85752869 C-0.34128479 67.1635653 -0.34128479 67.1635653 -3.75 70.9375 C-6.78206413 72.36930806 -8.67848937 72.47450152 -12 72 C-14.69990662 70.20006226 -16.5418865 68.916227 -18 66 C-17.95550993 63.94815565 -17.83169305 61.89795839 -17.67578125 59.8515625 C-17.62738602 59.20071686 -17.57899078 58.54987122 -17.52912903 57.87930298 C-17.4187327 56.40620422 -17.30567668 54.93330327 -17.19049072 53.46057129 C-16.98608978 50.8203215 -16.79397328 48.17934167 -16.60302734 45.53808594 C-16.23669182 40.52003221 -15.84216462 35.50466618 -15.43530273 30.48974609 C-15.26871841 28.3958714 -15.1089973 26.30144044 -14.95581055 24.20654297 C-14.73087602 21.14391808 -14.48307278 18.08388886 -14.23046875 15.0234375 C-14.16675583 14.0901059 -14.10304291 13.15677429 -14.03739929 12.19515991 C-13.5793943 6.97716266 -12.97934515 3.76161724 -9 0 C-5.81452856 -1.59273572 -3.39809153 -0.76164121 0 0 Z " fill="#FCFCFC" transform="translate(250,345)"/>
<path d="M0 0 C0.7528125 -0.02191406 1.505625 -0.04382813 2.28125 -0.06640625 C5.75123332 0.91716297 6.62935948 2.49257641 8.5 5.5625 C9.09273181 9.02081521 9.0606428 12.43551656 9.03125 15.9375 C9.0350769 16.93958496 9.03890381 17.94166992 9.04284668 18.97412109 C9.04556382 21.08887743 9.03821657 23.20366749 9.02148438 25.31835938 C9.00007255 28.55154494 9.02129343 31.78250838 9.046875 35.015625 C9.04423169 37.07292156 9.03910665 39.13021674 9.03125 41.1875 C9.03934692 42.15220215 9.04744385 43.1169043 9.05578613 44.11083984 C8.99536322 48.445074 8.9121777 50.89592808 6.59179688 54.6484375 C4.11609097 56.91378931 3.00681033 57.48366284 -0.3125 58 C-3.97660612 57.49708347 -5.20892517 56.42328621 -7.45675659 53.54498291 C-9.55291181 49.56164415 -9.18820057 45.23912046 -9.12890625 40.8359375 C-9.13131821 39.81069977 -9.13373016 38.78546204 -9.13621521 37.72915649 C-9.13523845 35.56907266 -9.12188585 33.40896326 -9.09692383 31.24902344 C-9.06253841 27.94119515 -9.07629401 24.63602806 -9.09570312 21.328125 C-9.08880658 19.22655113 -9.07913594 17.12498414 -9.06640625 15.0234375 C-9.07136612 14.03483734 -9.07632599 13.04623718 -9.08143616 12.02767944 C-8.96413073 5.20322623 -8.96413073 5.20322623 -6.60327148 1.9440918 C-4.20482685 0.36860739 -2.8556894 -0.00488988 0 0 Z " fill="#FEFEFE" transform="translate(215.5,278.4375)"/>
</svg>
